# xmcd
#
# Track frame offsets:
#	150
#	20218
#	34469
#	51707
#	66862
#	83634
#	99747
#	110453
#	122866
#	143322
#	159912
#	173339
#	185769
#	198079
#
# Disc length: 2814 seconds
#
# Revision: 1
# Processed by: cddbd v1.5.2PL0 Copyright (c) Steve Scherf et al.
# Submitted via: audiograbber 1.83.01
#
DISCID=bf0afc0e
DTITLE=Various Artist - Keep Your Soul, A Tribute To Doug Sahm
DYEAR=2009
DGENRE=Country Rock
TTITLE0=Little Willie G. - She's About A Mover
TTITLE1=Los Lobos - It Didn't Even Bring Me Down
TTITLE2=Alejandro Escovedo - Too Little Too Late
TTITLE3=Greg Dulli - You Was For Real
TTITLE4=Dave Alvin - Dynamite Woman
TTITLE5=Flaco Jimenez with The West Side Horns - Ta Bueno Compadre (It's OK Fri
TTITLE5=end)
TTITLE6=Delbert McClinton - Texas Me
TTITLE7=Terry Allen - I'm Not That Kat Anymore
TTITLE8=Jimmie Vaughan - Why, Why, Why
TTITLE9=Charlie Sexton and The Mystic Knights of the Sea - You're Doin' It Too Ha
TTITLE9=rd
TTITLE10=The Gourds - Nuevo Laredo
TTITLE11=Freda and The Fire Dogs - Be Real
TTITLE12=Joe "King" Carrasco and Texas Tornados - Adios Mexico
TTITLE13=Shawn Sahm - Mendocino
EXTD=
EXTT0=
EXTT1=
EXTT2=
EXTT3=
EXTT4=
EXTT5=
EXTT6=
EXTT7=
EXTT8=
EXTT9=
EXTT10=
EXTT11=
EXTT12=
EXTT13=
PLAYORDER=
